# xmcd
#
# Track frame offsets:
#	150
#	23167
#	45897
#	71601
#	92427
#	114871
#	135350
#	154666
#	172305
#	194482
#
# Disc length: 2920 seconds
#
# Revision: 1
# Processed by: cddbd v1.5.2PL0 Copyright (c) Steve Scherf et al.
# Submitted via: EZCDAudioConverter 8.0.7.1
#
DISCID=770b660a
DTITLE=Sergio Bap - Sentimental Blues Vol.3
DYEAR=2003
DGENRE=Blues
TTITLE0=Rio Branco Avenue
TTITLE1=Hot Wood Blues (Part One)
TTITLE2=The Cat
TTITLE3=Eric Jam
TTITLE4=Guga's Smash
TTITLE5=For Alamanda
TTITLE6=Last Dance
TTITLE7=Pet Shop Blues
TTITLE8=Hot Wood Blues (Part Two)
TTITLE9=Downtown
EXTD=
EXTT0=
EXTT1=
EXTT2=
EXTT3=
EXTT4=
EXTT5=
EXTT6=
EXTT7=
EXTT8=
EXTT9=
PLAYORDER=
